<svg width="14" height="14" viewBox="0 0 14 14" fill="none" xmlns="http://www.w3.org/2000/svg">
<path fill-rule="evenodd" clip-rule="evenodd" d="M7 0C3.129 0 0 3.129 0 7C0 10.871 3.129 14 7 14C10.871 14 14 10.871 14 7C14 3.129 10.871 0 7 0ZM7 12.6C3.913 12.6 1.4 10.087 1.4 7C1.4 3.913 3.913 1.4 7 1.4C10.087 1.4 12.6 3.913 12.6 7C12.6 10.087 10.087 12.6 7 12.6ZM7 6.013L9.513 3.5L10.5 4.487L7.987 7L10.5 9.513L9.513 10.5L7 7.987L4.487 10.5L3.5 9.513L6.013 7L3.5 4.487L4.487 3.5L7 6.013Z" fill="#49454F"/>
</svg>
