<svg width="43" height="43" viewBox="0 0 43 43" fill="none" xmlns="http://www.w3.org/2000/svg">
<path fill-rule="evenodd" clip-rule="evenodd" d="M21.5 0.25C9.77 0.25 0.25 9.77 0.25 21.5C0.25 33.23 9.77 42.75 21.5 42.75C33.23 42.75 42.75 33.23 42.75 21.5C42.75 9.77 33.23 0.25 21.5 0.25ZM35.015 31.7637C31.9762 28.0663 24.6025 26.8125 21.5 26.8125C18.3975 26.8125 11.0237 28.0663 7.985 31.7637C5.8175 28.9162 4.5 25.3675 4.5 21.5C4.5 12.1288 12.1288 4.5 21.5 4.5C30.8712 4.5 38.5 12.1288 38.5 21.5C38.5 25.3675 37.1825 28.9162 35.015 31.7637ZM14.0625 16.1875C14.0625 12.065 17.3775 8.75 21.5 8.75C25.6225 8.75 28.9375 12.065 28.9375 16.1875C28.9375 20.31 25.6225 23.625 21.5 23.625C17.3775 23.625 14.0625 20.31 14.0625 16.1875Z" fill="white"/>
</svg>
